<?xml version="1.0" standalone="no"?>
<!DOCTYPE svg PUBLIC "-//W3C//DTD SVG 20010904//EN"
 "http://www.w3.org/TR/2001/REC-SVG-20010904/DTD/svg10.dtd">
<svg version="1.0" xmlns="http://www.w3.org/2000/svg"
 width="400.000000pt" height="211.000000pt" viewBox="0 0 400.000000 211.000000"
 preserveAspectRatio="xMidYMid meet">

<g transform="translate(0.000000,211.000000) scale(0.100000,-0.100000)"
fill="#000000" stroke="none">
<path d="M1349 1973 c-13 -16 -12 -17 4 -4 9 7 17 15 17 17 0 8 -8 3 -21 -13z"/>
<path d="M1374 1967 c-28 -21 -32 -62 -9 -87 14 -15 14 -18 0 -30 -20 -16 -19
-59 2 -82 15 -17 15 -19 0 -36 -21 -23 -22 -66 -2 -82 14 -12 14 -15 0 -30
-20 -22 -19 -59 2 -82 9 -10 13 -21 10 -25 -4 -4 -13 1 -20 11 -12 16 -13 16
-13 -3 0 -11 4 -17 8 -15 4 3 5 -9 2 -25 -4 -20 -1 -39 9 -55 14 -20 14 -26 3
-35 -13 -11 -28 -84 -16 -76 3 2 13 -3 23 -10 15 -11 15 -14 3 -18 -8 -3 -16
-1 -19 6 -2 6 -6 3 -10 -7 -4 -9 -3 -15 1 -12 4 2 7 -15 7 -39 0 -24 -2 -42
-5 -40 -3 2 -6 -5 -6 -15 0 -10 3 -17 6 -15 3 2 5 -16 5 -40 0 -24 -3 -41 -7
-39 -4 3 -5 -2 -2 -10 3 -9 10 -16 16 -16 5 0 6 4 3 10 -3 5 0 7 9 4 12 -5 11
-9 -5 -25 -23 -23 -25 -62 -4 -79 8 -7 12 -17 9 -22 -3 -5 -11 -2 -18 7 -10
15 -12 14 -12 -4 0 -11 3 -18 6 -16 3 2 5 -16 5 -40 0 -24 -2 -42 -5 -40 -3 2
-6 -5 -6 -16 0 -19 1 -19 13 -3 7 10 16 15 20 11 3 -4 -1 -15 -10 -25 -23 -25
-21 -65 3 -87 17 -16 18 -20 5 -38 -21 -30 -19 -44 9 -72 28 -28 22 -43 -8
-18 -15 14 -18 14 -8 2 6 -9 8 -20 4 -24 -4 -5 -1 -5 6 -1 14 8 14 0 2 -29 -8
-19 -9 -19 -9 -1 -1 11 -4 17 -7 13 -8 -8 6 -48 15 -42 5 2 16 -4 26 -15 10
-11 24 -20 30 -20 8 0 13 -16 13 -42 0 -60 4 -75 16 -75 46 1 56 -4 56 -27 0
-29 46 -69 70 -61 13 4 20 -2 25 -22 5 -15 8 -31 7 -35 -1 -3 21 -5 48 -5 31
1 50 -2 50 -9 0 -32 79 -60 95 -34 8 12 25 13 25 2 0 -5 -10 -14 -22 -21 -15
-8 -16 -10 -4 -6 10 3 26 0 34 -7 12 -10 14 -10 8 -1 -5 10 1 11 26 7 18 -3
39 -8 46 -10 7 -2 11 0 8 4 -2 4 1 15 8 25 12 16 14 16 31 -3 24 -26 63 -25
92 2 18 17 26 19 35 10 17 -17 63 -15 78 3 11 13 15 13 22 3 5 -8 6 -4 3 12
-6 23 -3 25 32 25 31 0 41 5 58 32 16 26 26 31 52 29 17 -1 31 0 30 3 -1 3 1
6 5 6 10 0 58 47 58 57 0 5 -12 -4 -26 -19 -18 -19 -24 -22 -20 -10 3 10 6 25
6 33 0 8 8 14 18 14 11 0 27 9 37 20 10 11 21 17 26 15 7 -5 -1 30 -16 67 -5
14 -2 18 12 18 42 0 66 57 43 100 -7 13 -6 19 5 23 10 4 12 1 8 -11 -7 -18 -5
-17 17 12 8 11 10 17 3 13 -13 -8 -7 53 9 88 8 18 8 19 -5 3 -8 -10 -17 -15
-20 -12 -4 4 3 18 13 32 25 31 25 57 1 81 -19 19 -19 20 0 37 23 21 24 51 2
76 -15 17 -15 19 0 36 16 18 20 115 4 105 -4 -2 -5 -9 -2 -14 3 -5 -1 -6 -10
-3 -14 6 -14 9 4 28 25 27 27 53 4 78 -15 17 -15 19 0 36 23 25 21 51 -5 79
-20 21 -13 34 7 14 18 -18 16 82 -2 101 -15 17 -15 19 0 36 23 25 21 51 -5 79
-20 22 -13 34 8 13 15 -15 11 84 -4 103 -8 9 -9 18 -3 21 5 3 11 1 13 -5 2 -7
5 6 5 27 1 21 -5 49 -13 62 -13 19 -13 25 0 45 8 12 14 40 13 61 0 21 -3 34
-5 27 -2 -6 -8 -9 -12 -6 -5 3 -1 18 8 34 14 25 14 33 2 57 -7 16 -13 31 -12
34 2 11 -67 3 -82 -9 -12 -10 -20 -9 -40 4 -19 13 -29 14 -45 6 -24 -13 -34
-14 -27 -3 3 5 -2 9 -10 9 -10 0 -11 -4 -4 -11 22 -22 9 -26 -19 -5 -23 17
-33 19 -49 10 -25 -13 -35 -14 -28 -3 3 5 -2 9 -10 9 -10 0 -11 -4 -4 -11 22
-22 9 -26 -19 -5 -23 17 -33 19 -49 10 -25 -13 -35 -14 -28 -3 3 5 -2 9 -10 9
-10 0 -11 -4 -4 -11 22 -22 9 -26 -19 -5 -23 17 -33 19 -49 10 -25 -13 -35
-14 -28 -3 3 5 -2 9 -10 9 -10 0 -11 -4 -4 -11 22 -22 9 -26 -19 -5 -23 17
-33 19 -49 10 -25 -13 -35 -14 -28 -3 3 5 -2 9 -10 9 -10 0 -11 -4 -4 -11 22
-22 9 -26 -19 -5 -23 17 -33 19 -49 10 -25 -13 -35 -14 -28 -3 3 5 -2 9 -10 9
-10 0 -11 -4 -4 -11 22 -22 9 -26 -19 -5 -23 17 -33 19 -49 10 -25 -13 -35
-14 -28 -3 3 5 -2 9 -10 9 -10 0 -11 -4 -4 -11 22 -22 8 -25 -19 -5 -28 21
-31 21 -55 5 -31 -19 -42 -21 -27 -3 8 10 7 14 -4 14 -8 0 -12 -4 -9 -9 7 -11
-3 -10 -27 3 -16 8 -26 7 -46 -6 -20 -13 -28 -14 -37 -4 -8 9 -8 10 1 5 6 -3
14 -3 16 1 11 17 -76 8 -99 -10z m77 -18 l21 -21 14 21 c19 26 48 27 73 2 19
-19 20 -19 37 0 23 25 49 24 68 -3 l16 -22 23 22 c29 27 45 28 72 2 l22 -20
18 20 c24 26 50 25 69 -2 l16 -22 23 22 c13 12 31 22 40 22 9 0 23 -10 31 -22
l16 -22 23 22 c30 28 52 28 71 0 l16 -22 20 22 c26 28 55 28 74 1 l14 -21 21
21 c12 12 30 21 40 21 11 0 26 -9 35 -21 l14 -21 21 21 c27 27 56 27 75 -1
l15 -21 20 24 c16 20 23 22 47 14 39 -14 46 -61 13 -86 l-22 -17 21 -11 c30
-16 30 -65 0 -85 l-22 -16 22 -16 c27 -19 29 -58 2 -81 -19 -17 -19 -17 0 -30
28 -19 26 -66 -2 -86 l-23 -16 23 -16 c28 -21 28 -59 0 -79 l-22 -16 22 -16
c28 -19 28 -57 0 -84 l-22 -20 22 -16 c28 -20 28 -58 0 -78 l-22 -16 22 -16
c27 -19 28 -51 2 -79 l-20 -22 20 -18 c26 -23 26 -60 0 -78 l-20 -14 20 -18
c26 -24 25 -60 -2 -80 l-23 -16 23 -16 c29 -20 30 -67 1 -86 -20 -14 -20 -16
-4 -41 20 -30 13 -62 -16 -71 -23 -8 -24 -21 -4 -41 8 -9 15 -22 15 -30 0 -19
-38 -56 -50 -49 -5 3 -14 -3 -20 -14 -7 -13 -7 -22 0 -26 15 -9 12 -51 -5 -65
-9 -7 -25 -13 -38 -14 -17 -1 -22 -7 -22 -28 -1 -38 -19 -53 -63 -53 -30 0
-36 -3 -34 -18 7 -39 -49 -72 -75 -46 -8 8 -15 3 -27 -19 -20 -38 -51 -50 -75
-28 -23 21 -26 20 -55 -9 -30 -30 -40 -31 -66 -5 -21 21 -50 27 -50 10 0 -6
-11 -16 -25 -22 -22 -10 -29 -8 -54 16 -28 27 -30 27 -55 11 -24 -16 -28 -16
-51 -1 -14 9 -25 23 -25 31 0 20 -21 30 -31 14 -14 -24 -63 1 -69 36 -5 26 -9
30 -36 27 -36 -3 -58 18 -59 56 0 17 -6 27 -15 28 -52 2 -78 31 -59 65 12 23
3 62 -12 53 -16 -9 -49 26 -49 53 0 13 7 26 15 29 22 9 18 28 -7 39 -28 12
-35 51 -13 75 15 17 15 20 -9 43 -31 31 -32 41 -6 67 11 11 20 24 20 28 0 5
-9 17 -20 27 -25 23 -25 40 1 66 l21 21 -23 24 c-19 20 -21 27 -11 49 6 14 16
25 22 25 5 0 10 7 10 15 0 8 -5 15 -10 15 -6 0 -15 11 -22 25 -8 19 -8 28 2
40 12 14 11 18 0 25 -8 5 -11 12 -7 17 5 4 12 1 17 -7 5 -8 12 -12 15 -8 4 3
-3 16 -14 27 -26 26 -27 45 -1 71 21 21 26 40 10 40 -5 0 -14 10 -21 21 -9 18
-7 27 10 50 l21 29 -20 20 c-25 25 -25 42 0 65 21 19 27 45 10 45 -5 0 -14 10
-21 21 -9 18 -7 27 10 50 l21 29 -20 20 c-25 25 -25 31 1 63 l20 26 -21 30
c-18 23 -20 32 -11 50 7 11 16 21 21 21 6 0 10 7 10 15 0 8 -4 15 -10 15 -5 0
-14 9 -20 21 -9 16 -8 26 5 45 19 30 48 31 76 3z"/>
<path d="M1391 1937 c-16 -20 -4 -44 22 -42 16 1 21 8 21 26 0 27 -25 37 -43
16z m21 -19 c-7 -7 -12 -8 -12 -2 0 6 3 14 7 17 3 4 9 5 12 2 2 -3 -1 -11 -7
-17z"/>
<path d="M1509 1948 c-10 -47 -7 -59 14 -56 27 4 31 51 4 56 -9 2 -17 2 -18 0z"/>
<path d="M1609 1946 c-7 -38 -2 -51 21 -51 34 0 36 48 2 53 -12 2 -22 1 -23
-2z"/>
<path d="M1719 1946 c-7 -38 -2 -51 21 -51 34 0 36 48 2 53 -12 2 -22 1 -23
-2z"/>
<path d="M1829 1946 c-7 -38 -2 -51 21 -51 34 0 36 48 2 53 -12 2 -22 1 -23
-2z"/>
<path d="M1939 1945 c-8 -35 -2 -50 21 -50 18 0 25 5 25 20 0 11 -4 23 -10 27
-11 9 -34 10 -36 3z"/>
<path d="M2049 1945 c-8 -35 -2 -50 21 -50 18 0 25 5 25 20 0 11 -4 23 -10 27
-11 9 -34 10 -36 3z"/>
<path d="M2159 1945 c-8 -35 -2 -50 21 -50 18 0 25 5 25 20 0 11 -4 23 -10 27
-11 9 -34 10 -36 3z"/>
<path d="M2269 1945 c-8 -35 -2 -50 21 -50 18 0 25 5 25 20 0 11 -4 23 -10 27
-11 9 -34 10 -36 3z"/>
<path d="M2379 1948 c-6 -25 -3 -51 8 -55 17 -7 50 6 38 15 -6 4 -10 14 -10
22 0 12 -33 29 -36 18z"/>
<path d="M2489 1948 c-9 -43 -6 -54 14 -53 28 2 31 48 5 53 -10 2 -18 2 -19 0z
m31 -29 c0 -6 -4 -7 -10 -4 -5 3 -10 11 -10 16 0 6 5 7 10 4 6 -3 10 -11 10
-16z"/>
<path d="M1443 1886 c-22 -22 -22 -22 -3 -39 27 -23 25 -62 -2 -81 l-22 -16
22 -16 c27 -19 29 -58 2 -81 -19 -17 -19 -17 0 -30 28 -19 26 -66 -2 -86 l-23
-16 23 -16 c28 -21 28 -59 0 -79 l-22 -16 22 -16 c28 -19 28 -57 0 -84 l-22
-20 22 -16 c28 -20 28 -58 0 -78 l-22 -16 22 -16 c27 -19 28 -55 2 -79 l-20
-18 20 -22 c26 -27 26 -60 0 -78 l-20 -14 20 -18 c26 -24 25 -60 -2 -80 l-23
-16 23 -16 c27 -19 30 -68 5 -82 -16 -8 -15 -12 10 -35 30 -28 34 -48 12 -70
-20 -20 -19 -23 12 -50 24 -21 26 -26 15 -50 -14 -31 -6 -56 18 -56 25 0 42
-25 38 -57 -3 -25 0 -28 23 -25 32 4 62 -24 56 -49 -3 -10 1 -23 9 -30 10 -8
14 -8 14 0 0 6 11 11 25 11 26 0 62 -41 50 -60 -3 -5 -2 -10 4 -10 5 0 13 5
16 10 16 25 75 4 88 -32 3 -10 9 -9 24 5 26 23 60 22 75 -3 16 -25 29 -25 51
0 20 24 50 26 71 5 20 -21 30 -19 41 8 11 24 51 35 68 18 16 -16 27 -13 27 7
0 36 59 68 75 42 11 -17 25 0 25 29 0 35 22 55 53 47 29 -7 41 2 26 20 -17 21
0 54 31 61 34 6 44 26 28 53 -15 23 3 70 27 70 19 0 20 26 0 34 -25 9 -18 52
12 74 l26 19 -21 21 c-27 27 -27 37 -2 62 25 25 25 26 1 57 -21 25 -18 50 6
70 13 10 12 16 -7 41 -18 24 -20 33 -11 51 7 11 16 21 21 21 15 0 12 27 -4 33
-15 6 -39 -16 -49 -45 -4 -10 -16 -18 -27 -18 -12 0 -34 -7 -50 -15 -28 -15
-34 -25 -31 -52 1 -6 -3 -14 -9 -18 -6 -4 -10 7 -10 29 0 29 5 36 27 43 l28
10 -23 12 c-29 16 -31 66 -2 81 18 10 22 7 35 -22 11 -26 14 -28 15 -12 0 31
24 48 40 29 19 -22 43 -19 37 5 -3 11 4 31 15 46 13 15 17 29 11 32 -22 15
-31 45 -20 69 5 13 14 23 19 23 4 0 8 7 8 15 0 8 -4 15 -10 15 -5 0 -14 10
-21 21 -9 18 -7 27 10 50 l21 29 -20 20 c-25 25 -25 31 0 63 22 27 26 47 10
47 -5 0 -14 10 -21 21 -9 18 -7 27 10 50 l21 29 -20 20 c-25 25 -25 31 1 63
l20 26 -21 30 c-18 23 -20 32 -11 50 7 11 16 21 21 21 16 0 11 19 -11 41 l-21
21 -14 -21 c-9 -12 -24 -21 -35 -21 -10 0 -28 9 -40 21 l-21 21 -14 -21 c-9
-12 -24 -21 -35 -21 -10 0 -28 9 -40 21 l-21 21 -14 -21 c-9 -12 -24 -21 -35
-21 -10 0 -28 9 -40 21 l-21 21 -14 -21 c-9 -12 -24 -21 -35 -21 -10 0 -28 9
-40 21 l-21 21 -14 -21 c-19 -27 -46 -27 -69 -1 l-18 20 -22 -20 c-12 -11 -28
-20 -37 -20 -8 0 -23 9 -33 20 l-18 20 -22 -20 c-12 -11 -28 -20 -37 -20 -8 0
-23 9 -33 20 l-18 20 -22 -20 c-27 -25 -47 -25 -69 -1 -17 19 -18 19 -37 0
-25 -25 -56 -24 -71 1 -15 24 -17 24 -45 -4z m275 -25 c23 -12 58 -1 74 23 6
8 8 8 8 0 0 -6 11 -16 25 -22 27 -13 75 1 75 22 0 8 2 8 8 0 4 -6 18 -17 31
-23 20 -11 27 -10 52 8 16 12 29 18 29 13 0 -5 12 -14 27 -21 23 -11 30 -9 55
9 15 11 28 17 28 12 0 -5 12 -14 27 -21 23 -10 30 -9 54 8 23 17 28 18 33 5 3
-8 2 -12 -3 -9 -5 3 -12 2 -15 -3 -10 -16 84 -5 103 12 17 15 19 15 25 1 3 -9
2 -13 -3 -10 -5 3 -12 2 -15 -3 -8 -13 82 -7 98 7 20 17 41 4 25 -15 -6 -7
-14 -12 -18 -9 -14 8 1 -60 17 -77 14 -16 14 -20 0 -35 -14 -16 -32 -91 -20
-78 3 3 11 0 19 -7 11 -9 11 -13 -1 -27 -14 -16 -28 -83 -15 -76 4 3 12 -2 19
-10 10 -13 10 -19 -4 -33 -20 -23 -21 -51 -1 -79 13 -18 13 -22 0 -33 -8 -7
-15 -21 -15 -31 0 -21 -4 -22 -37 -13 -17 5 -21 13 -20 37 0 18 -3 41 -8 51
-6 14 -5 17 3 12 18 -11 14 0 -5 15 -11 10 -14 10 -9 2 4 -8 2 -13 -5 -13 -7
0 -9 10 -7 25 3 13 2 22 -3 20 -4 -3 -9 5 -11 17 -2 18 -9 23 -30 22 -27 -1
-46 24 -34 45 3 5 -2 15 -11 22 -9 8 -14 9 -10 3 7 -13 -87 -7 -114 7 -24 12
-30 0 -12 -27 9 -14 13 -37 11 -53 -2 -17 -2 -29 1 -29 14 3 60 -26 65 -41 3
-9 9 -23 13 -31 5 -13 4 -13 -10 -1 -27 22 -19 7 10 -20 14 -13 23 -18 18 -10
-5 9 -3 12 6 9 8 -3 15 -14 15 -26 1 -12 7 -29 15 -39 12 -15 12 -16 -5 -10
-16 6 -17 5 -6 -8 10 -13 15 -13 21 -3 4 7 11 9 15 5 4 -3 2 -12 -3 -19 -17
-22 -24 -50 -11 -42 7 5 9 0 6 -14 -3 -12 -3 -21 1 -20 19 2 24 -4 11 -13 -11
-8 -9 -9 10 -3 20 6 23 4 14 -7 -11 -14 -26 -75 -16 -64 3 2 11 0 19 -7 11 -9
9 -13 -9 -22 -24 -12 -32 -49 -18 -75 4 -8 0 -21 -12 -33 -11 -11 -18 -28 -15
-38 4 -16 1 -17 -18 -10 -18 7 -27 5 -37 -8 -12 -15 -11 -16 5 -3 9 7 17 9 17
3 0 -13 -25 -33 -32 -26 -3 3 -9 0 -14 -7 -4 -7 -3 -10 3 -6 7 4 10 -2 9 -16
-1 -18 -7 -22 -33 -23 -18 0 -30 3 -27 8 10 16 -3 8 -22 -14 -10 -12 -13 -18
-5 -13 9 5 12 3 9 -6 -3 -8 -14 -13 -26 -13 -12 1 -19 -3 -16 -8 3 -5 -5 -6
-18 -3 -13 3 -36 2 -50 -4 -25 -9 -26 -8 -30 25 -4 37 -10 35 95 39 15 1 33 7
40 15 6 7 7 10 1 7 -7 -4 -11 5 -11 23 0 16 4 27 9 24 15 -9 8 3 -9 17 -11 10
-14 10 -9 2 5 -9 0 -12 -16 -10 -14 1 -22 -3 -21 -10 6 -27 -26 1 -32 29 -8
37 -4 42 37 39 18 -1 40 -2 48 -2 8 1 43 1 77 2 l61 1 4 50 c1 28 -1 52 -6 56
-5 3 -6 0 -2 -6 8 -14 4 -15 -18 -6 -27 10 -17 26 13 22 26 -4 29 -2 20 14 -5
10 -7 24 -3 30 5 7 3 8 -6 3 -10 -6 -12 -4 -7 9 4 10 3 15 -3 11 -5 -3 -16 8
-25 24 -18 36 -19 45 -3 35 7 -4 8 -3 4 5 -4 6 -12 8 -18 5 -8 -5 -9 -1 -5 10
5 11 3 15 -5 10 -8 -5 -9 -2 -5 10 4 10 3 15 -3 11 -5 -3 -16 8 -25 24 -18 36
-19 45 -3 35 7 -4 8 -3 4 5 -4 6 -12 8 -18 5 -8 -5 -9 -1 -5 10 5 11 3 15 -5
10 -8 -5 -9 -2 -5 10 4 10 3 15 -3 11 -5 -3 -16 8 -25 24 -18 36 -19 45 -3 35
7 -4 8 -3 4 5 -4 6 -12 8 -18 5 -8 -5 -9 -1 -5 10 5 11 3 15 -5 10 -8 -5 -9
-2 -5 10 4 10 3 15 -3 11 -5 -3 -16 8 -25 24 -18 36 -19 44 -2 35 7 -4 9 -3 4
2 -5 5 -14 9 -19 9 -6 0 -13 6 -16 14 -3 8 0 11 7 7 18 -12 12 0 -11 20 -12
10 -18 13 -14 7 4 -7 2 -13 -3 -13 -10 0 -13 34 -15 125 0 14 -7 20 -22 20
-12 0 -20 -3 -18 -7 3 -4 -2 -31 -11 -60 -8 -28 -15 -85 -15 -125 0 -41 -4
-72 -9 -69 -5 3 -15 -2 -22 -12 -13 -15 -12 -16 4 -3 9 7 17 9 17 3 0 -12 -25
-34 -32 -27 -3 3 -11 -3 -19 -12 -13 -16 -12 -17 4 -4 9 7 17 9 17 3 0 -12
-25 -34 -32 -27 -3 3 -11 -3 -19 -12 -13 -16 -12 -17 4 -4 9 7 17 9 17 3 0
-12 -25 -34 -32 -27 -3 3 -11 -3 -19 -12 -13 -16 -12 -17 4 -4 9 7 17 9 17 3
0 -12 -25 -34 -32 -27 -3 3 -11 -3 -19 -12 -13 -16 -12 -17 4 -4 9 7 17 9 17
3 0 -12 -25 -34 -32 -27 -3 3 -11 -3 -19 -12 -13 -16 -12 -17 4 -4 9 7 17 9
17 3 0 -12 -25 -34 -32 -27 -3 3 -11 -3 -19 -12 -13 -16 -12 -17 4 -4 9 7 17
9 17 3 0 -13 -25 -33 -32 -26 -3 3 -9 0 -14 -7 -5 -8 -3 -10 6 -4 8 5 11 3 8
-6 -3 -8 -14 -15 -26 -17 -28 -4 -28 -18 -2 -32 11 -6 17 -16 14 -22 -4 -7 -3
-8 4 -4 10 6 102 -27 102 -36 0 -2 -15 -4 -34 -4 -19 0 -33 2 -31 6 2 3 -10 5
-25 5 -16 0 -28 -2 -28 -5 1 -3 -2 -12 -6 -22 -4 -9 -6 -29 -4 -45 l3 -28 105
-2 c58 -1 108 -2 113 -2 9 -1 -2 -52 -15 -66 -6 -6 -12 -5 -18 4 -7 12 -11 12
-24 2 -35 -29 -4 -81 49 -81 29 0 31 -2 27 -28 -3 -25 -8 -27 -42 -27 -21 0
-36 4 -33 9 4 5 1 6 -5 2 -6 -4 -9 -13 -5 -21 3 -8 0 -15 -6 -15 -6 0 -11 11
-11 24 0 13 -3 31 -6 40 -4 12 0 14 17 11 17 -3 20 -2 11 7 -14 14 -44 20 -36
7 7 -11 1 -11 -30 1 -14 5 -26 16 -26 25 0 8 -9 20 -20 27 -11 7 -20 16 -20
21 0 4 5 5 12 1 7 -4 8 -3 4 5 -4 6 -12 9 -17 6 -5 -4 -9 2 -9 11 0 10 -7 26
-17 36 -25 28 -22 266 4 261 7 -1 9 6 5 19 -3 13 -1 19 5 15 6 -4 8 4 5 20 -3
16 -1 24 5 20 6 -4 17 1 24 11 13 16 13 16 -5 2 -18 -14 -19 -14 -12 5 5 11
15 36 22 55 7 19 17 34 23 33 17 -4 1 25 -17 31 -10 3 -2 4 16 2 20 -1 37 3
45 13 9 12 9 13 0 7 -18 -10 -16 6 3 30 13 16 15 16 10 2 -7 -25 1 -22 15 3 8
15 8 19 0 15 -6 -4 -11 -3 -11 3 0 5 5 13 10 16 6 4 8 10 5 15 -7 11 -103 -15
-124 -34 -10 -9 -21 -13 -25 -9 -4 4 -4 0 -1 -8 3 -8 1 -26 -5 -40 -10 -24
-10 -24 -5 3 5 27 -8 47 -20 28 -3 -5 -11 -10 -17 -10 -6 0 -5 7 3 18 11 15
11 15 -1 4 -8 -7 -15 -18 -15 -24 0 -6 -6 -13 -14 -16 -8 -3 -11 0 -7 7 11 17
0 13 -15 -6 -10 -12 -11 -15 -1 -9 10 6 11 1 6 -21 -10 -40 -23 -63 -36 -63
-6 0 -3 10 8 23 10 12 4 9 -14 -7 -30 -28 -42 -43 -24 -32 16 9 7 -60 -11 -87
-9 -14 -17 -32 -17 -38 0 -8 -4 -8 -14 0 -13 11 -12 15 5 32 23 23 24 47 3 77
-15 21 -15 25 0 41 22 24 20 50 -5 77 -18 19 -18 22 -4 28 9 3 13 2 10 -3 -3
-5 0 -13 7 -17 7 -4 10 -4 6 1 -4 4 -2 15 5 23 9 13 9 14 0 8 -9 -5 -11 0 -7
21 3 17 -1 36 -9 47 -12 17 -12 23 2 48 15 26 15 30 -1 58 -16 28 -16 32 0 60
16 28 16 32 0 60 -18 32 -7 50 18 29 16 -14 106 -20 98 -7 -3 5 -10 5 -16 2
-7 -4 -8 -2 -4 4 5 9 15 8 36 -3 23 -12 34 -13 55 -3 14 6 25 16 25 22 0 8 2
8 8 0 4 -6 17 -16 30 -23z m262 -231 c20 -10 22 -42 5 -57 -4 -5 -5 2 -2 15 3
15 1 22 -6 19 -12 -4 -12 -26 -1 -57 4 -12 9 -11 24 8 l18 22 68 -122 c37 -68
89 -162 115 -210 27 -48 49 -90 49 -93 0 -3 -56 -5 -125 -5 -77 0 -125 -4
-125 -10 0 -6 40 -10 101 -10 76 0 100 -3 96 -12 -2 -7 -11 -13 -20 -13 -8 0
-19 -3 -22 -7 -4 -4 -16 -1 -26 5 -16 10 -22 9 -29 -3 -9 -13 -11 -13 -19 -1
-8 12 -12 12 -25 2 -13 -11 -19 -11 -31 -1 -11 9 -19 10 -28 1 -10 -8 -17 -7
-25 1 -9 9 -15 9 -23 1 -9 -9 -16 -9 -31 0 -15 10 -20 9 -27 -2 -5 -7 -14 -10
-20 -7 -6 4 -11 2 -11 -3 0 -6 -4 -11 -10 -11 -5 0 -6 8 -3 18 6 14 4 15 -8 5
-11 -9 -22 -4 -54 24 -28 25 -34 33 -18 29 15 -5 127 -25 140 -26 1 0 -2 12
-6 28 -6 21 -18 31 -60 46 -49 18 -56 18 -107 4 -35 -10 -51 -11 -45 -4 4 6
61 82 125 169 116 157 117 159 111 201 -6 40 9 148 24 171 3 6 7 -16 9 -47 2
-45 7 -60 22 -68z m-210 -55 c0 -26 -29 -56 -66 -68 l-43 -14 13 31 c13 31 47
56 79 56 9 0 17 -2 17 -5z m400 -4 c0 -5 7 -17 16 -26 17 -17 5 -43 -14 -31
-12 7 -21 66 -10 66 4 0 8 -4 8 -9z m80 -10 c5 -11 10 -28 10 -38 0 -14 -3
-12 -13 7 -7 14 -20 25 -29 25 -10 0 -23 6 -30 13 -9 9 -6 12 20 12 21 0 35
-6 42 -19z m-630 -79 c-4 -21 -11 -45 -15 -53 -7 -11 -5 -11 10 1 17 14 18 13
11 -5 -5 -14 3 -10 23 13 35 37 51 41 44 10 -9 -36 -23 -48 -55 -48 -23 0 -29
-4 -24 -16 3 -8 2 -13 -3 -10 -7 5 -31 -35 -31 -51 0 -4 15 8 34 26 42 40 58
38 39 -6 -11 -27 -19 -33 -43 -33 -24 0 -33 -6 -40 -26 -6 -14 -10 -33 -10
-42 1 -15 3 -14 16 3 8 11 12 26 9 34 -3 9 -3 12 1 9 4 -4 15 -3 26 3 18 9 19
7 16 -23 -3 -28 -8 -35 -38 -44 -32 -11 -35 -15 -37 -55 l-3 -44 15 35 c14 31
31 49 45 50 3 0 6 -13 7 -29 2 -24 -4 -33 -31 -49 -28 -17 -32 -24 -28 -51 5
-36 22 -42 22 -8 0 12 5 29 10 37 9 13 12 12 25 -4 20 -27 19 -31 -12 -60 -25
-24 -27 -28 -15 -58 16 -44 7 -48 -11 -5 -11 25 -25 38 -50 46 -19 7 -38 18
-40 26 -6 14 2 55 11 55 13 0 42 -35 42 -51 0 -10 5 -21 11 -25 7 -4 9 0 6 12
-4 11 -9 31 -12 45 -4 14 -19 33 -36 43 -29 17 -38 47 -21 74 11 17 38 -13 45
-48 3 -19 5 -17 6 11 1 26 -6 42 -24 59 -27 26 -32 56 -11 82 12 16 14 16 24
-8 7 -14 12 -35 13 -47 1 -16 3 -13 10 11 8 27 6 37 -11 59 -26 33 -26 69 0
83 26 14 35 -5 26 -58 l-6 -37 21 44 c13 31 16 48 9 55 -16 16 -12 67 7 88 25
27 31 22 23 -20z m705 28 c-4 -6 -2 -16 3 -23 15 -17 -19 -56 -55 -63 -39 -8
-70 24 -53 55 11 22 20 21 54 -8 18 -15 18 -15 7 7 -15 28 -7 42 25 42 15 0
23 -4 19 -10z m-675 -51 c-7 -11 -14 -18 -17 -15 -3 3 0 12 7 21 18 21 23 19
10 -6z m707 -53 c2 -23 -1 -26 -12 -16 -8 7 -12 16 -9 21 3 5 0 9 -6 9 -6 0
-8 5 -5 11 12 18 30 4 32 -25z m-62 -6 c-3 -5 2 -18 12 -28 46 -46 48 -54 10
-32 -26 16 -37 29 -37 46 0 13 5 24 11 24 5 0 8 -4 4 -10z m133 -70 c9 0 10
-5 4 -16 -5 -9 -7 -25 -5 -35 3 -12 -4 -22 -26 -33 -47 -25 -78 -21 -95 13
-14 26 -14 30 2 44 19 17 32 13 51 -18 11 -18 12 -17 6 8 -7 36 2 50 29 43 11
-3 27 -6 34 -6z m38 -28 c6 -4 4 -13 -8 -24 -17 -17 -18 -17 -18 7 0 26 7 30
26 17z m-26 -68 c0 -8 -5 -12 -10 -9 -6 4 -8 11 -5 16 9 14 15 11 15 -7z m-84
-29 c-3 -8 0 -26 6 -40 14 -32 3 -45 -17 -19 -18 23 -19 46 -3 62 16 16 21 15
14 -3z m62 -15 c-1 -17 -6 -33 -11 -37 -6 -3 -7 -1 -3 5 3 6 2 13 -3 17 -14 8
-9 45 5 45 8 0 12 -13 12 -30z m38 -26 c-9 -8 -16 -25 -16 -37 0 -15 -3 -18
-11 -10 -8 8 -8 17 0 31 6 11 11 30 11 42 0 19 1 20 16 6 14 -15 14 -17 0 -32z
m-993 21 c-3 -9 -8 -14 -10 -11 -3 3 -2 9 2 15 9 16 15 13 8 -4z m277 -17 c0
-11 -12 -10 -30 2 -13 9 -13 11 0 19 14 9 29 -2 30 -21z m115 18 c52 -22 45
-39 -12 -30 -57 8 -89 19 -98 33 -10 16 69 14 110 -3z m-50 -97 c3 -4 -20 -6
-52 -5 -51 1 -59 -2 -70 -23 -12 -25 -12 -25 -11 6 l1 31 63 -2 c34 -1 65 -4
69 -7z m102 -11 c-3 -8 -6 -5 -6 6 -1 11 2 17 5 13 3 -3 4 -12 1 -19z m113 12
c0 -5 -5 -10 -11 -10 -5 0 -7 5 -4 10 3 6 8 10 11 10 2 0 4 -4 4 -10z m97 -12
c-3 -8 -6 -5 -6 6 -1 11 2 17 5 13 3 -3 4 -12 1 -19z m123 12 c0 -5 -4 -10 -9
-10 -6 0 -13 5 -16 10 -3 6 1 10 9 10 9 0 16 -4 16 -10z m-738 -68 c16 -7 18
-11 7 -11 -12 -1 -14 -9 -11 -33 2 -18 10 -40 18 -48 7 -8 22 -36 33 -62 11
-27 25 -48 30 -48 12 0 71 -61 71 -74 0 -5 -9 -1 -20 9 -11 10 -20 16 -20 13
0 -2 12 -15 27 -29 14 -13 23 -18 19 -11 -6 10 -1 11 19 6 16 -4 41 0 65 11
24 11 49 15 64 11 23 -6 24 -9 14 -26 -16 -25 -3 -38 23 -22 11 7 24 10 30 7
5 -4 8 -1 7 6 -5 19 19 22 26 3 7 -18 -10 -35 -28 -28 -6 2 -17 0 -24 -5 -11
-7 -11 -16 2 -55 19 -56 19 -59 4 -50 -10 6 -10 5 -1 -7 8 -10 31 -14 83 -13
39 1 74 5 78 9 4 5 1 5 -5 1 -16 -9 -16 -10 3 54 9 29 14 64 11 77 -4 22 -3
23 17 10 38 -25 56 -28 49 -9 -3 9 -10 23 -16 30 -14 18 23 20 115 3 26 -4 45
-5 43 -1 -3 4 2 14 11 21 11 9 14 22 10 41 -5 28 -5 28 19 12 24 -15 27 -15
44 0 11 10 28 17 38 16 32 -4 33 -1 13 37 -15 28 -17 39 -7 45 18 12 29 10 21
-4 -4 -8 -3 -10 2 -5 5 5 9 14 9 20 1 7 5 11 11 10 14 -2 11 41 -4 59 -11 13
-9 16 13 20 19 4 25 1 25 -12 0 -10 7 -23 15 -30 12 -10 12 -15 -2 -36 -10
-16 -13 -35 -9 -55 3 -16 2 -28 -2 -25 -4 2 -8 -4 -8 -15 0 -19 1 -19 13 -3 7
10 16 15 20 11 3 -4 -1 -15 -10 -25 -20 -22 -22 -63 -5 -80 9 -9 7 -17 -10
-35 -26 -27 -27 -45 -8 -73 13 -18 12 -21 -5 -32 -10 -7 -19 -8 -19 -3 0 5 5
12 10 14 6 3 5 4 -2 3 -15 -3 -20 -64 -6 -89 11 -22 11 -22 -21 -32 -16 -5
-21 -4 -17 4 12 18 0 12 -20 -11 -10 -12 -13 -18 -5 -13 11 6 13 4 8 -9 -4
-10 -7 -27 -7 -37 0 -12 -5 -17 -10 -14 -6 4 -23 -1 -38 -11 -15 -10 -30 -18
-33 -17 -3 1 -4 -8 -2 -20 3 -17 0 -22 -19 -23 -13 0 -32 -4 -42 -9 -14 -6
-17 -5 -12 3 11 18 0 14 -15 -5 -10 -11 -10 -14 -1 -9 13 8 15 5 6 -18 -4 -11
-14 -13 -34 -9 -22 4 -35 -1 -53 -19 -21 -21 -27 -23 -42 -11 -17 12 -87 14
-80 3 2 -3 0 -12 -5 -20 -7 -12 -13 -11 -33 8 -27 26 -45 28 -73 8 -18 -13
-22 -12 -34 7 -12 20 -12 21 3 8 25 -20 21 -7 -5 15 -12 10 -19 14 -15 8 4 -7
-7 -10 -30 -10 -26 1 -45 9 -65 30 -19 18 -35 26 -48 23 -11 -3 -20 -1 -20 3
0 5 -3 16 -7 26 -5 13 -3 15 8 9 8 -5 11 -5 6 1 -5 5 -14 9 -20 9 -7 0 -12 5
-12 12 0 6 -4 15 -9 20 -6 5 -6 2 -1 -6 6 -11 4 -13 -9 -8 -10 4 -22 7 -27 7
-5 0 -9 8 -9 17 0 21 -38 63 -57 63 -10 0 -12 6 -7 23 9 27 9 37 -2 61 -5 14
-4 17 5 11 9 -5 8 0 -2 16 -8 13 -15 37 -15 53 0 18 -8 36 -20 46 -17 14 -18
19 -6 35 19 26 17 52 -5 74 -19 19 -19 20 0 37 23 21 24 51 3 76 -14 14 -14
20 -4 33 7 8 15 13 19 10 15 -9 -2 54 -19 73 -14 15 -16 22 -7 31 9 9 14 5 19
-17 4 -16 18 -34 30 -40z m978 44 c0 -2 -7 -7 -16 -10 -8 -3 -12 -2 -9 4 6 10
25 14 25 6z m-693 -23 c-4 -3 -23 -6 -42 -6 -19 0 -38 3 -42 6 -3 4 15 7 42 7
27 0 45 -3 42 -7z m63 3 c0 -9 -30 -14 -35 -6 -4 6 3 10 14 10 12 0 21 -2 21
-4z m37 -2 c-3 -3 -12 -4 -19 -1 -8 3 -5 6 6 6 11 1 17 -2 13 -5z m55 -10 c11
10 19 11 33 4 10 -6 15 -6 12 -1 -3 4 25 9 61 10 58 1 62 0 27 -7 -22 -4 -45
-5 -52 -3 -18 7 -17 -29 2 -74 14 -32 18 -35 45 -29 32 6 39 -4 17 -23 -16
-13 -179 -22 -227 -12 -27 5 -36 12 -38 31 -3 20 -2 22 11 12 23 -19 46 -3 53
36 3 21 8 46 11 56 5 18 6 19 18 2 11 -14 15 -15 27 -2z m264 8 c-5 -9 -74 -7
-83 2 -4 3 15 6 41 6 26 0 45 -3 42 -8z m-556 -58 c0 -12 -7 -27 -15 -34 -18
-15 -20 -35 -3 -24 7 5 8 3 3 -5 -9 -15 56 -85 100 -108 l30 -16 -22 25 c-23
24 -31 58 -14 58 29 0 41 -14 41 -50 0 -38 1 -38 50 -49 28 -6 58 -11 65 -11
8 0 15 -4 15 -10 0 -5 -5 -10 -11 -10 -6 0 -25 -10 -42 -22 l-32 -22 22 25 23
25 -45 12 c-40 11 -49 10 -86 -10 l-41 -21 -31 32 -32 31 43 0 c24 0 52 -5 63
-10 33 -18 21 -3 -17 21 -24 14 -53 22 -86 23 -46 1 -51 3 -64 35 l-14 33 28
-6 c15 -4 40 -16 56 -28 l29 -21 -27 36 c-20 27 -36 37 -55 37 -35 0 -57 18
-65 53 l-7 28 30 -16 c17 -8 36 -25 42 -37 10 -19 12 -20 21 -4 5 9 7 24 4 32
-3 8 -1 26 5 41 9 25 10 25 24 7 8 -10 15 -29 15 -40z m740 -10 c0 -18 -28
-49 -37 -40 -8 7 17 56 29 56 4 0 8 -7 8 -16z m-682 -65 c1 -8 -4 -23 -11 -34
-14 -18 -15 -17 -31 14 -10 18 -15 40 -12 48 6 14 9 14 29 0 12 -8 23 -21 25
-28z m588 19 c3 -5 -2 -21 -12 -36 l-17 -27 27 24 c23 22 28 23 40 10 8 -8 17
-24 21 -36 5 -18 2 -23 -12 -23 -11 0 -24 -5 -31 -12 -20 -20 -91 26 -92 60 0
24 34 59 52 54 10 -2 21 -9 24 -14z m-341 -68 c-3 -5 -12 -7 -20 -3 -21 7 -19
13 6 13 11 0 18 -4 14 -10z m254 -13 c8 -11 6 -13 -11 -12 -24 2 -49 -15 -41
-27 2 -5 -3 -8 -11 -8 -18 0 -21 -16 -6 -23 6 -3 5 -4 -2 -3 -20 4 -19 19 2
54 21 33 50 42 69 19z m-108 -50 c-8 -8 -11 -7 -11 4 0 20 13 34 18 19 3 -7
-1 -17 -7 -23z m-131 -5 c0 -15 4 -32 9 -37 13 -15 23 -102 13 -109 -11 -6
-35 40 -52 101 -10 34 -10 44 1 57 21 23 29 19 29 -12z m100 18 c19 -12 5 -27
-38 -39 -42 -12 -41 3 1 17 l32 12 -40 -5 -40 -4 30 14 c36 17 36 17 55 5z
m170 -14 c0 -7 -8 -20 -17 -27 -15 -12 -16 -12 -9 5 7 19 6 19 -14 1 -11 -10
-23 -16 -26 -13 -6 6 44 48 57 48 5 0 9 -6 9 -14z m-309 -156 c28 -16 23 -30
-11 -30 -16 0 -30 2 -30 4 0 2 -3 11 -6 20 -7 19 17 22 47 6z m-436 -38 c-8
-8 -25 10 -19 20 4 6 9 5 15 -3 4 -7 6 -15 4 -17z"/>
<path d="M1460 1866 c0 -2 8 -10 18 -17 15 -13 16 -12 3 4 -13 16 -21 21 -21
13z"/>
<path d="M1676 1862 c-3 -5 1 -9 9 -9 8 0 12 4 9 9 -3 4 -7 8 -9 8 -2 0 -6 -4
-9 -8z"/>
<path d="M1786 1862 c-3 -5 1 -9 9 -9 8 0 12 4 9 9 -3 4 -7 8 -9 8 -2 0 -6 -4
-9 -8z"/>
<path d="M1896 1862 c-3 -5 1 -9 9 -9 8 0 12 4 9 9 -3 4 -7 8 -9 8 -2 0 -6 -4
-9 -8z"/>
<path d="M2006 1862 c-3 -5 1 -9 9 -9 8 0 12 4 9 9 -3 4 -7 8 -9 8 -2 0 -6 -4
-9 -8z"/>
<path d="M2116 1862 c-3 -5 1 -9 9 -9 8 0 12 4 9 9 -3 4 -7 8 -9 8 -2 0 -6 -4
-9 -8z"/>
<path d="M2434 1750 c0 -13 4 -16 10 -10 7 7 7 13 0 20 -6 6 -10 3 -10 -10z"/>
<path d="M1475 1649 c-4 -6 -5 -12 -2 -15 2 -3 7 2 10 11 7 17 1 20 -8 4z"/>
<path d="M2436 1513 c-6 -14 -5 -15 5 -6 7 7 10 15 7 18 -3 3 -9 -2 -12 -12z"/>
<path d="M1475 1419 c-4 -6 -5 -12 -2 -15 2 -3 7 2 10 11 7 17 1 20 -8 4z"/>
<path d="M2269 1013 c-13 -16 -12 -17 4 -4 16 13 21 21 13 21 -2 0 -10 -8 -17
-17z"/>
<path d="M1470 953 c0 -5 12 -20 28 -34 l27 -24 -25 30 c-14 17 -26 32 -27 34
-2 2 -3 0 -3 -6z"/>
<path d="M1476 741 c-3 -5 2 -15 12 -22 15 -12 16 -12 5 2 -7 9 -10 19 -6 22
3 4 4 7 0 7 -3 0 -8 -4 -11 -9z"/>
<path d="M2426 723 c-6 -14 -5 -15 5 -6 7 7 10 15 7 18 -3 3 -9 -2 -12 -12z"/>
<path d="M1671 561 c9 -14 8 -23 -6 -44 -9 -15 -21 -27 -25 -27 -17 0 -18 -29
-2 -42 15 -12 16 -11 3 5 -16 21 -3 22 23 2 27 -21 36 -19 37 8 1 14 4 9 8
-13 4 -19 3 -38 -2 -41 -5 -3 -1 -9 8 -12 9 -4 13 -3 10 3 -8 13 -3 13 30 0
18 -7 24 -7 20 1 -4 5 -8 21 -10 35 -2 18 2 24 11 20 18 -7 23 5 13 31 -7 20
-75 73 -111 86 -15 5 -16 3 -7 -12z m69 -55 c0 -3 -4 -8 -10 -11 -5 -3 -10 -1
-10 4 0 6 5 11 10 11 6 0 10 -2 10 -4z"/>
<path d="M2230 562 c0 -4 -14 -13 -31 -19 -26 -10 -29 -10 -18 3 10 12 9 13
-5 8 -10 -4 -15 -13 -12 -21 3 -8 6 -17 6 -19 0 -2 7 -4 15 -4 20 0 32 -50 14
-61 -17 -11 -51 25 -42 46 7 19 -10 19 -50 0 l-32 -16 24 21 c26 22 16 27 -13
5 -10 -7 -15 -18 -11 -24 15 -25 -8 -32 -34 -9 l-26 23 24 -27 c19 -22 27 -25
38 -16 11 9 20 4 42 -22 27 -33 36 -35 85 -14 14 5 17 4 11 -5 -6 -10 -3 -11
13 -2 12 6 24 17 28 24 5 9 4 9 -7 0 -22 -21 -34 -15 -14 7 17 18 17 25 6 55
-7 19 -9 44 -6 55 3 11 4 20 1 20 -3 0 -6 -4 -6 -8z"/>
<path d="M1740 557 c0 -2 15 -14 33 -27 20 -15 27 -17 18 -6 -13 16 -51 41
-51 33z"/>
<path d="M1650 530 c-6 -11 -8 -20 -6 -20 3 0 10 9 16 20 6 11 8 20 6 20 -3 0
-10 -9 -16 -20z"/>
<path d="M1555 490 c10 -11 20 -20 23 -20 3 0 -3 9 -13 20 -10 11 -20 20 -23
20 -3 0 3 -9 13 -20z"/>
<path d="M1831 476 c9 -19 8 -31 -5 -57 -9 -17 -16 -33 -16 -35 0 -1 20 -9 45
-17 44 -15 45 -15 35 3 -13 24 -4 62 20 88 16 17 17 21 4 26 -9 3 -12 2 -9 -5
7 -11 -37 -3 -67 13 -16 8 -17 6 -7 -16z"/>
<path d="M1969 483 c-1 -5 -1 -12 0 -17 4 -21 -10 -56 -34 -84 -18 -22 -22
-33 -14 -38 7 -4 9 -3 6 3 -4 7 12 10 46 10 28 0 69 3 90 7 31 6 37 5 31 -6
-4 -7 -3 -10 2 -5 5 5 9 16 9 25 0 9 6 16 13 14 9 -1 7 6 -5 25 -24 40 -26 41
-18 13 7 -22 6 -23 -9 -11 -9 7 -16 10 -16 5 0 -4 -15 7 -33 24 -24 23 -39 31
-52 26 -13 -5 -16 -4 -11 4 4 7 5 12 2 12 -3 0 -7 -3 -7 -7z m135 -78 c3 3 2
0 -3 -6 -10 -12 -31 -4 -31 13 0 7 4 7 13 -1 8 -6 17 -9 21 -6z m-91 -31 c-6
-18 -19 -18 -26 -1 -3 7 3 13 14 14 12 1 16 -3 12 -13z"/>
<path d="M1797 369 c7 -7 15 -10 18 -7 3 3 -2 9 -12 12 -14 6 -15 5 -6 -5z"/>
<path d="M1720 346 c0 -2 8 -10 18 -17 15 -13 16 -12 3 4 -13 16 -21 21 -21
13z"/>
<path d="M2075 290 c-4 -6 -11 -7 -17 -4 -7 4 -8 2 -4 -5 6 -9 11 -9 22 0 14
11 18 19 10 19 -3 0 -8 -5 -11 -10z"/>
<path d="M1990 966 c0 -2 8 -10 18 -17 15 -13 16 -12 3 4 -13 16 -21 21 -21
13z"/>
<path d="M1403 1829 c-13 -4 -23 -12 -23 -16 1 -31 53 -39 58 -9 5 25 -9 35
-35 25z"/>
<path d="M2493 1829 c-24 -9 -27 -17 -15 -36 11 -17 46 -9 50 12 5 24 -9 34
-35 24z"/>
<path d="M1386 1704 c-8 -20 1 -31 29 -36 16 -2 20 3 20 22 0 30 -39 41 -49
14z m41 -10 c-3 -3 -12 -4 -19 -1 -8 3 -5 6 6 6 11 1 17 -2 13 -5z"/>
<path d="M2476 1704 c-8 -20 1 -31 29 -36 16 -2 20 3 20 22 0 30 -39 41 -49
14z m41 -10 c-3 -3 -12 -4 -19 -1 -8 3 -5 6 6 6 11 1 17 -2 13 -5z"/>
<path d="M1385 1592 c-7 -18 3 -29 30 -34 15 -2 20 3 20 21 0 18 -6 25 -22 26
-12 1 -25 -5 -28 -13z"/>
<path d="M2475 1592 c-7 -18 3 -29 30 -34 15 -2 20 3 20 21 0 18 -6 25 -22 26
-12 1 -25 -5 -28 -13z"/>
<path d="M1384 1476 c-8 -22 2 -33 31 -33 21 0 25 4 23 21 -4 25 -45 35 -54
12z m43 -12 c-3 -3 -12 -4 -19 -1 -8 3 -5 6 6 6 11 1 17 -2 13 -5z"/>
<path d="M2479 1481 c-5 -31 -2 -36 24 -38 24 -2 28 2 25 20 -3 23 -47 38 -49
18z m38 -17 c-3 -3 -12 -4 -19 -1 -8 3 -5 6 6 6 11 1 17 -2 13 -5z"/>
<path d="M1386 1364 c-9 -23 1 -34 30 -34 20 0 25 4 22 22 -4 26 -43 35 -52
12z"/>
<path d="M2476 1363 c-8 -19 1 -30 29 -35 15 -2 20 3 20 21 0 29 -39 40 -49
14z"/>
<path d="M1384 1245 c-8 -21 2 -32 31 -32 20 0 25 5 25 23 0 19 -5 24 -25 24
-14 0 -28 -7 -31 -15z m43 -11 c-3 -3 -12 -4 -19 -1 -8 3 -5 6 6 6 11 1 17 -2
13 -5z"/>
<path d="M2474 1245 c-8 -21 2 -32 31 -32 20 0 25 5 25 23 0 19 -5 24 -25 24
-14 0 -28 -7 -31 -15z m43 -11 c-3 -3 -12 -4 -19 -1 -8 3 -5 6 6 6 11 1 17 -2
13 -5z"/>
<path d="M1383 1134 c-7 -20 4 -31 32 -31 19 0 25 5 25 22 0 18 -6 23 -26 23
-14 0 -28 -6 -31 -14z m44 -10 c-3 -3 -12 -4 -19 -1 -8 3 -5 6 6 6 11 1 17 -2
13 -5z"/>
<path d="M2479 1139 c-5 -28 -1 -34 24 -36 22 -1 27 2 27 21 0 18 -6 24 -25
24 -14 0 -26 -4 -26 -9z m38 -15 c-3 -3 -12 -4 -19 -1 -8 3 -5 6 6 6 11 1 17
-2 13 -5z"/>
<path d="M1390 1025 c-16 -19 -1 -45 23 -41 15 2 22 10 22 26 0 26 -28 36 -45
15z m40 -13 c0 -5 -7 -9 -15 -9 -8 0 -15 4 -15 9 0 4 7 8 15 8 8 0 15 -4 15
-8z"/>
<path d="M2480 1025 c-16 -19 -1 -45 23 -41 15 2 22 10 22 26 0 26 -28 36 -45
15z m40 -13 c0 -5 -7 -9 -15 -9 -8 0 -15 4 -15 9 0 4 7 8 15 8 8 0 15 -4 15
-8z"/>
<path d="M1383 904 c-7 -20 4 -31 32 -31 19 0 25 5 25 22 0 18 -6 23 -26 23
-14 0 -28 -6 -31 -14z m44 -10 c-3 -3 -12 -4 -19 -1 -8 3 -5 6 6 6 11 1 17 -2
13 -5z"/>
<path d="M2475 910 c-10 -17 7 -37 31 -37 18 0 24 5 24 22 0 17 -6 23 -25 23
-14 0 -28 -4 -30 -8z m42 -16 c-3 -3 -12 -4 -19 -1 -8 3 -5 6 6 6 11 1 17 -2
13 -5z"/>
<path d="M1386 794 c-8 -21 10 -43 32 -40 26 4 22 48 -5 52 -12 2 -24 -3 -27
-12z m44 -14 c0 -5 -7 -10 -15 -10 -8 0 -15 5 -15 10 0 6 7 10 15 10 8 0 15
-4 15 -10z"/>
<path d="M2479 794 c-14 -17 -4 -31 26 -36 15 -2 20 3 20 21 0 28 -28 37 -46
15z m41 -14 c0 -5 -7 -10 -15 -10 -8 0 -15 5 -15 10 0 6 7 10 15 10 8 0 15 -4
15 -10z"/>
<path d="M2464 687 c-10 -26 2 -44 28 -43 16 1 23 7 23 21 0 12 -6 19 -14 17
-8 -2 -18 3 -22 10 -6 9 -10 8 -15 -5z m33 -23 c-3 -3 -12 -4 -19 -1 -8 3 -5
6 6 6 11 1 17 -2 13 -5z"/>
<path d="M1403 674 c-8 -20 6 -34 30 -30 31 4 30 41 -1 42 -13 1 -26 -5 -29
-12z m34 -10 c-3 -3 -12 -4 -19 -1 -8 3 -5 6 6 6 11 1 17 -2 13 -5z"/>
<path d="M1425 571 c-11 -11 -4 -39 12 -45 21 -8 48 17 40 38 -5 13 -41 18
-52 7z m35 -21 c0 -5 -4 -10 -9 -10 -6 0 -13 5 -16 10 -3 6 1 10 9 10 9 0 16
-4 16 -10z"/>
<path d="M2446 573 c-12 -12 -6 -41 10 -47 20 -8 46 12 42 32 -3 16 -40 26
-52 15z m34 -23 c0 -5 -4 -10 -9 -10 -6 0 -13 5 -16 10 -3 6 1 10 9 10 9 0 16
-4 16 -10z"/>
<path d="M1486 454 c-20 -19 -20 -28 -1 -44 11 -9 18 -8 35 8 19 18 20 21 5
36 -20 20 -20 20 -39 0z m34 -13 c0 -5 -7 -11 -15 -15 -15 -5 -20 5 -8 17 9
10 23 9 23 -2z"/>
<path d="M2397 458 c-22 -12 -22 -27 0 -43 23 -17 43 -8 43 20 0 27 -19 37
-43 23z m31 -27 c3 -8 -1 -12 -9 -9 -7 2 -15 10 -17 17 -3 8 1 12 9 9 7 -2 15
-10 17 -17z"/>
<path d="M1562 364 c-11 -12 -11 -18 -2 -29 17 -21 38 -19 45 5 12 37 -17 54
-43 24z m33 -14 c-3 -5 -11 -10 -16 -10 -6 0 -7 5 -4 10 3 6 11 10 16 10 6 0
7 -4 4 -10z"/>
<path d="M2310 365 c-10 -11 -9 -18 3 -30 19 -19 31 -19 47 0 10 11 9 18 -3
30 -19 19 -31 19 -47 0z m35 -15 c3 -5 2 -10 -4 -10 -5 0 -13 5 -16 10 -3 6
-2 10 4 10 5 0 13 -4 16 -10z"/>
<path d="M1655 290 c-12 -37 14 -53 42 -25 12 12 13 19 3 30 -17 21 -38 19
-45 -5z m30 -10 c-3 -5 -11 -10 -16 -10 -6 0 -7 5 -4 10 3 6 11 10 16 10 6 0
7 -4 4 -10z"/>
<path d="M2214 295 c-6 -15 17 -45 35 -45 16 0 23 18 16 40 -7 23 -43 27 -51
5z m30 -11 c3 -8 2 -12 -4 -9 -6 3 -10 10 -10 16 0 14 7 11 14 -7z"/>
<path d="M1757 238 c-6 -20 6 -37 25 -38 12 0 30 39 23 50 -11 18 -43 10 -48
-12z m24 -11 c-10 -9 -11 -8 -5 6 3 10 9 15 12 12 3 -3 0 -11 -7 -18z"/>
<path d="M2115 250 c-7 -11 11 -50 23 -50 16 0 30 22 25 41 -6 20 -37 26 -48
9z m29 -15 c3 -8 1 -15 -4 -15 -6 0 -10 7 -10 15 0 8 2 15 4 15 2 0 6 -7 10
-15z"/>
<path d="M1874 225 c-9 -21 3 -45 21 -45 16 0 36 39 28 53 -8 13 -43 7 -49 -8z
m36 -16 c0 -5 -4 -9 -10 -9 -5 0 -10 7 -10 16 0 8 5 12 10 9 6 -3 10 -10 10
-16z"/>
<path d="M1997 234 c-12 -13 -8 -42 8 -48 25 -9 45 4 41 27 -3 22 -35 35 -49
21z m33 -19 c0 -8 -4 -15 -10 -15 -5 0 -10 7 -10 15 0 8 5 15 10 15 6 0 10 -7
10 -15z"/>
<path d="M1343 1865 c0 -8 4 -12 9 -9 5 3 6 10 3 15 -9 13 -12 11 -12 -6z"/>
<path d="M1344 1750 c0 -13 4 -16 10 -10 7 7 7 13 0 20 -6 6 -10 3 -10 -10z"/>
<path d="M1343 1635 c0 -8 4 -12 9 -9 5 3 6 10 3 15 -9 13 -12 11 -12 -6z"/>
<path d="M1340 736 c0 -2 8 -10 18 -17 15 -13 16 -12 3 4 -13 16 -21 21 -21
13z"/>
<path d="M1340 689 c0 -5 5 -7 10 -4 6 3 10 8 10 11 0 2 -4 4 -10 4 -5 0 -10
-5 -10 -11z"/>
<path d="M1390 490 c0 -5 5 -10 11 -10 5 0 7 5 4 10 -3 6 -8 10 -11 10 -2 0
-4 -4 -4 -10z"/>
<path d="M2340 265 c-11 -13 -10 -14 4 -9 9 3 16 10 16 15 0 13 -6 11 -20 -6z"/>
<path d="M1587 249 c7 -7 15 -10 18 -7 3 3 -2 9 -12 12 -14 6 -15 5 -6 -5z"/>
<path d="M2299 233 c-13 -16 -12 -17 4 -4 16 13 21 21 13 21 -2 0 -10 -8 -17
-17z"/>
<path d="M1692 202 c-9 -6 -5 -12 15 -20 24 -11 26 -10 11 1 -10 8 -15 17 -11
20 9 9 1 8 -15 -1z"/>
<path d="M2070 155 c-7 -8 -9 -15 -6 -15 4 0 14 7 22 15 9 8 11 15 6 15 -5 0
-15 -7 -22 -15z"/>
<path d="M1950 156 c0 -2 7 -7 16 -10 8 -3 12 -2 9 4 -6 10 -25 14 -25 6z"/>
</g>
</svg>
