<?xml version="1.0" standalone="no"?>
<!DOCTYPE svg PUBLIC "-//W3C//DTD SVG 20010904//EN"
 "http://www.w3.org/TR/2001/REC-SVG-20010904/DTD/svg10.dtd">
<svg version="1.0" xmlns="http://www.w3.org/2000/svg"
 width="50.000000pt" height="50.000000pt" viewBox="0 0 50.000000 50.000000"
 preserveAspectRatio="xMidYMid meet">

<g transform="translate(0.000000,50.000000) scale(0.100000,-0.100000)"
fill="#000000" stroke="none">
<path d="M113 462 c-8 -5 -7 -11 2 -19 10 -10 14 -9 19 2 6 17 -5 26 -21 17z"/>
<path d="M166 462 c-2 -4 -1 -14 3 -21 6 -10 10 -9 14 3 6 16 -8 32 -17 18z"/>
<path d="M215 461 c-3 -5 -2 -12 3 -15 5 -3 9 1 9 9 0 17 -3 19 -12 6z"/>
<path d="M253 455 c0 -8 4 -12 9 -9 5 3 6 10 3 15 -9 13 -12 11 -12 -6z"/>
<path d="M296 461 c-4 -5 -2 -12 3 -15 5 -4 12 -2 15 3 4 5 2 12 -3 15 -5 4
-12 2 -15 -3z"/>
<path d="M349 463 c0 -4 0 -47 1 -95 1 -58 -3 -89 -11 -94 -8 -4 -9 -3 -5 4
11 17 -9 15 -24 -3 -8 -9 -30 -15 -59 -15 -51 0 -64 6 -76 35 -8 18 -9 17 -13
-8 -6 -46 3 -57 37 -47 35 10 113 2 105 -11 -5 -8 17 -14 39 -10 4 0 7 -11 7
-25 0 -14 4 -23 8 -20 5 3 7 19 4 36 -4 25 -8 31 -23 27 -12 -3 -19 0 -19 9 0
8 10 14 23 14 21 0 22 3 20 75 -1 53 2 75 10 75 8 0 7 3 -2 9 -8 5 -11 16 -8
25 3 8 2 18 -3 21 -6 4 -10 3 -11 -2z"/>
<path d="M239 401 c6 -10 8 -21 5 -23 -3 -3 2 -8 9 -11 12 -5 13 0 4 24 -6 16
-15 29 -20 29 -4 0 -3 -8 2 -19z"/>
<path d="M222 380 c0 -14 2 -19 5 -12 2 6 2 18 0 25 -3 6 -5 1 -5 -13z"/>
<path d="M111 381 c-11 -7 -11 -9 0 -13 11 -4 11 -8 2 -19 -10 -12 -8 -15 8
-16 11 -1 23 5 26 13 4 11 8 12 13 4 5 -8 9 -5 12 8 5 16 2 19 -11 14 -9 -3
-21 -13 -27 -21 -10 -12 -11 -10 -9 12 2 15 3 27 2 27 -1 0 -8 -4 -16 -9z"/>
<path d="M274 363 c2 -15 5 -28 7 -28 12 1 48 33 42 38 -3 4 -12 2 -20 -5 -11
-9 -13 -8 -11 2 2 7 -2 14 -9 17 -8 3 -11 -5 -9 -24z"/>
<path d="M186 363 c-10 -10 -7 -25 3 -19 5 4 11 1 13 -6 3 -7 7 -8 10 -3 7 12
-17 37 -26 28z"/>
<path d="M323 338 c-6 -7 -13 -21 -16 -30 -5 -15 -4 -16 13 -5 11 6 20 20 20
29 0 21 -4 22 -17 6z"/>
<path d="M121 303 c0 -11 3 -13 6 -5 2 6 10 9 15 6 7 -4 8 -2 4 4 -11 18 -26
14 -25 -5z"/>
<path d="M208 273 c7 -3 16 -2 19 1 4 3 -2 6 -13 5 -11 0 -14 -3 -6 -6z"/>
<path d="M107 263 c-3 -5 5 -8 18 -8 13 0 21 3 18 8 -2 4 -10 7 -18 7 -8 0
-16 -3 -18 -7z"/>
<path d="M122 220 c1 -20 -4 -30 -12 -25 -5 3 -10 2 -10 -3 0 -6 7 -12 15 -16
8 -3 14 -2 14 2 -4 22 3 32 21 32 11 0 20 3 20 8 0 4 -11 7 -24 7 -13 0 -24
-2 -24 -5z"/>
<path d="M200 219 c0 -5 5 -7 10 -4 6 3 10 8 10 11 0 2 -4 4 -10 4 -5 0 -10
-5 -10 -11z"/>
<path d="M281 203 c13 -16 18 -23 10 -16 -7 6 -20 9 -29 6 -11 -5 -13 -3 -7 7
6 10 2 11 -21 6 -16 -4 -38 -7 -49 -8 -11 0 -14 -2 -7 -5 6 -3 9 -10 6 -15 -4
-6 -3 -8 3 -5 6 4 15 -5 21 -18 14 -30 32 -32 55 -5 9 11 24 20 32 20 21 0 19
22 -5 43 -31 26 -36 20 -9 -10z"/>
<path d="M140 196 c0 -2 8 -10 18 -17 15 -13 16 -12 3 4 -13 16 -21 21 -21 13z"/>
<path d="M358 153 c-25 -30 -29 -41 -16 -49 7 -4 10 -4 6 1 -9 10 10 47 21 41
4 -3 8 1 8 9 0 19 -1 19 -19 -2z"/>
<path d="M106 153 c-3 -3 -6 -11 -6 -17 0 -6 4 -5 9 3 7 11 11 10 20 -6 5 -11
7 -24 3 -28 -4 -5 -1 -5 6 -1 9 5 9 13 2 26 -12 23 -25 32 -34 23z"/>
<path d="M167 126 c-12 -32 61 -56 114 -37 26 9 29 8 20 -3 -8 -10 -8 -16 3
-25 10 -8 16 -9 21 -1 4 6 3 10 -2 9 -18 -3 -27 2 -16 9 14 9 6 52 -9 52 -5 0
-7 -4 -4 -9 3 -4 -8 -7 -24 -5 -21 3 -30 -1 -33 -14 -4 -16 -5 -16 -6 1 -1 19
-21 24 -22 5 0 -7 -4 -3 -9 10 -11 25 -25 29 -33 8z"/>
<path d="M155 90 c-4 -6 -1 -9 7 -8 7 2 12 -2 11 -9 -2 -7 4 -10 13 -6 8 3 14
6 12 7 -2 1 -10 7 -20 14 -11 9 -18 10 -23 2z"/>
<path d="M210 66 c0 -8 51 -13 56 -5 3 5 -9 9 -25 9 -17 0 -31 -2 -31 -4z"/>
<path d="M276 52 c-3 -5 1 -9 9 -9 8 0 12 4 9 9 -3 4 -7 8 -9 8 -2 0 -6 -4 -9
-8z"/>
</g>
</svg>
